<?xml version="1.0" encoding="utf-8"?>
<!-- Generator: Adobe Illustrator 25.2.0, SVG Export Plug-In . SVG Version: 6.00 Build 0)  -->
<svg version="1.1" id="Layer_1" xmlns="http://www.w3.org/2000/svg" xmlns:xlink="http://www.w3.org/1999/xlink" x="0px" y="0px"
	 viewBox="0 0 380 43.1" style="enable-background:new 0 0 380 43.1;" xml:space="preserve">
<style type="text/css">
	.st0{enable-background:new    ;}
	.st1{fill:#231F20;}
</style>
<g id="Layer_2_1_">
	<g id="Layer_1-2">
		<g class="st0">
			<path class="st1" d="M65.4,26.9c0,1.6-0.4,2.9-1.2,4c-0.8,1.1-1.9,1.9-3.3,2.5c-1.4,0.6-2.9,0.8-4.6,0.8H42.5V5.8h15.2
				c1.3,0,2.5,0.4,3.5,1.1c1,0.7,1.7,1.6,2.2,2.7c0.5,1.1,0.8,2.3,0.8,3.5c0,1.4-0.3,2.7-1,3.9c-0.7,1.2-1.7,2.1-3,2.7
				c1.6,0.5,2.9,1.3,3.9,2.6C64.9,23.5,65.4,25,65.4,26.9z M48,10.5v7.2h7.4c0.6,0,1.2-0.1,1.7-0.4c0.5-0.3,0.9-0.7,1.2-1.2
				c0.3-0.5,0.5-1.2,0.5-1.9c0-0.7-0.1-1.3-0.4-1.9c-0.3-0.5-0.7-0.9-1.1-1.2c-0.5-0.3-1-0.4-1.6-0.4H48z M59.8,25.8
				c0-0.7-0.1-1.4-0.4-1.9s-0.7-1-1.2-1.4c-0.5-0.3-1.1-0.5-1.7-0.5H48v7.5h8.2c0.7,0,1.3-0.2,1.8-0.5c0.5-0.3,1-0.8,1.3-1.3
				C59.7,27.1,59.8,26.5,59.8,25.8z"/>
			<path class="st1" d="M87.8,34.4c-2.1,0-4-0.4-5.7-1.2c-1.7-0.8-3.1-1.9-4.4-3.3c-1.2-1.4-2.2-2.9-2.8-4.6c-0.7-1.7-1-3.5-1-5.3
				c0-1.9,0.4-3.7,1.1-5.4s1.7-3.3,2.9-4.6c1.2-1.3,2.7-2.4,4.4-3.2C84.1,6,85.9,5.6,88,5.6c2.1,0,3.9,0.4,5.6,1.2
				c1.7,0.8,3.1,1.9,4.3,3.3c1.2,1.4,2.1,2.9,2.8,4.6c0.7,1.7,1,3.5,1,5.3c0,1.9-0.3,3.7-1,5.4c-0.7,1.7-1.7,3.3-2.9,4.6
				c-1.2,1.3-2.7,2.4-4.4,3.2C91.7,34,89.8,34.4,87.8,34.4z M79.6,20c0,1.2,0.2,2.4,0.6,3.6c0.4,1.1,0.9,2.2,1.6,3.1
				c0.7,0.9,1.6,1.6,2.6,2.1c1,0.5,2.2,0.8,3.5,0.8c1.3,0,2.5-0.3,3.6-0.8c1-0.5,1.9-1.3,2.6-2.2s1.2-1.9,1.6-3.1
				c0.4-1.1,0.5-2.3,0.5-3.4c0-1.2-0.2-2.4-0.6-3.5c-0.4-1.1-0.9-2.1-1.6-3c-0.7-0.9-1.6-1.6-2.6-2.1c-1-0.5-2.2-0.8-3.5-0.8
				c-1.4,0-2.6,0.3-3.6,0.8c-1,0.5-1.9,1.3-2.6,2.2c-0.7,0.9-1.2,1.9-1.6,3C79.8,17.7,79.6,18.8,79.6,20z"/>
			<path class="st1" d="M124.1,34.4c-2.1,0-4-0.4-5.7-1.2c-1.7-0.8-3.1-1.9-4.4-3.3c-1.2-1.4-2.2-2.9-2.8-4.6c-0.7-1.7-1-3.5-1-5.3
				c0-1.9,0.4-3.7,1.1-5.4s1.7-3.3,2.9-4.6c1.2-1.3,2.7-2.4,4.4-3.2c1.7-0.8,3.6-1.2,5.6-1.2c2.1,0,3.9,0.4,5.6,1.2
				c1.7,0.8,3.1,1.9,4.3,3.3c1.2,1.4,2.1,2.9,2.8,4.6c0.7,1.7,1,3.5,1,5.3c0,1.9-0.3,3.7-1,5.4c-0.7,1.7-1.7,3.3-2.9,4.6
				c-1.2,1.3-2.7,2.4-4.4,3.2C127.9,34,126.1,34.4,124.1,34.4z M115.8,20c0,1.2,0.2,2.4,0.6,3.6c0.4,1.1,0.9,2.2,1.6,3.1
				c0.7,0.9,1.6,1.6,2.6,2.1c1,0.5,2.2,0.8,3.5,0.8c1.3,0,2.5-0.3,3.6-0.8c1-0.5,1.9-1.3,2.6-2.2s1.2-1.9,1.6-3.1
				c0.4-1.1,0.5-2.3,0.5-3.4c0-1.2-0.2-2.4-0.6-3.5c-0.4-1.1-0.9-2.1-1.6-3c-0.7-0.9-1.6-1.6-2.6-2.1c-1-0.5-2.2-0.8-3.5-0.8
				c-1.4,0-2.6,0.3-3.6,0.8c-1,0.5-1.9,1.3-2.6,2.2c-0.7,0.9-1.2,1.9-1.6,3C116,17.7,115.8,18.8,115.8,20z"/>
			<path class="st1" d="M148.2,34.2V5.8h5.5v13.5l11.9-13.5h6.1l-10.9,12.6l11.6,15.8h-6.2l-8.8-12.3l-3.6,3.8v8.5H148.2z"/>
		</g>
		<g class="st0">
			<path class="st1" d="M198.2,10.5c-0.5-0.5-1-1-1.5-1.3c-0.6-0.4-1.2-0.7-1.8-1c-0.6-0.3-1.3-0.4-2.1-0.6
				c-0.7-0.1-1.5-0.2-2.4-0.2c-2.8,0-4.8,0.5-6.1,1.6s-1.9,2.5-1.9,4.3c0,1.2,0.3,2.2,0.9,2.9c0.6,0.7,1.5,1.3,2.7,1.7
				s2.8,0.8,4.8,1.2c2.1,0.4,3.8,0.9,5.3,1.5c1.5,0.6,2.6,1.4,3.5,2.3c0.8,1,1.2,2.3,1.2,4c0,1.3-0.2,2.3-0.7,3.3
				c-0.5,0.9-1.2,1.7-2.1,2.3s-2,1.1-3.2,1.4s-2.6,0.5-4.1,0.5c-1.5,0-2.9-0.2-4.2-0.5c-1.3-0.3-2.6-0.8-3.8-1.4
				c-1.2-0.6-2.3-1.4-3.3-2.4l1.1-1.6c0.6,0.6,1.2,1.2,2,1.7c0.7,0.5,1.5,0.9,2.4,1.3c0.9,0.3,1.8,0.6,2.8,0.8c1,0.2,2,0.3,3.1,0.3
				c2.5,0,4.4-0.5,5.8-1.4c1.4-0.9,2.1-2.3,2.1-4.1c0-1.3-0.3-2.3-1-3c-0.6-0.8-1.6-1.4-3-1.9c-1.3-0.5-3-1-5-1.4
				c-2-0.4-3.7-0.9-5.1-1.4c-1.4-0.5-2.5-1.3-3.2-2.2c-0.7-0.9-1.1-2.1-1.1-3.7c0-1.7,0.4-3.1,1.3-4.3c0.8-1.2,2-2.1,3.5-2.7
				c1.5-0.6,3.3-0.9,5.2-0.9c1.2,0,2.4,0.1,3.4,0.4c1.1,0.2,2,0.6,2.9,1.1s1.7,1.1,2.5,1.9L198.2,10.5z"/>
		</g>
		<g class="st0">
			<path class="st1" d="M222.2,6h2l4.2,10.3L232.7,6h2l-5,12l6,13.8l10.9-26h2.2l-12.2,28.4h-1.9l-6.2-14.6l-6.3,14.6h-1.9
				L208.2,5.8h2.2l10.9,26l5.9-13.8L222.2,6z"/>
		</g>
		<g class="st0">
			<path class="st1" d="M265.5,5.8h1.8l12,28.4h-2.2l-3.9-9.4h-13.7l-3.9,9.4h-2.2L265.5,5.8z M272.6,23.2l-6.2-14.9l-6.2,14.9
				H272.6z"/>
			<path class="st1" d="M289.6,34.2V5.8h11.7c1.2,0,2.3,0.3,3.3,0.8s1.9,1.2,2.6,2c0.7,0.8,1.3,1.8,1.7,2.8s0.6,2.1,0.6,3.2
				c0,1.5-0.3,3-1,4.3c-0.7,1.3-1.6,2.4-2.8,3.3c-1.2,0.9-2.6,1.3-4.2,1.3h-9.9v10.7H289.6z M291.6,21.6h9.8c1.3,0,2.3-0.3,3.2-1
				c0.9-0.7,1.6-1.5,2.1-2.6c0.5-1.1,0.7-2.2,0.7-3.4c0-1.3-0.3-2.4-0.9-3.5c-0.6-1.1-1.3-1.9-2.3-2.5c-0.9-0.6-2-1-3.1-1h-9.6V21.6
				z"/>
		</g>
		<g class="st0">
			<path class="st1" d="M320.5,34.2V5.8h11.7c1.2,0,2.3,0.3,3.3,0.8s1.9,1.2,2.6,2c0.7,0.8,1.3,1.8,1.7,2.8s0.6,2.1,0.6,3.2
				c0,1.5-0.3,3-1,4.3c-0.7,1.3-1.6,2.4-2.8,3.3c-1.2,0.9-2.6,1.3-4.2,1.3h-9.9v10.7H320.5z M322.5,21.6h9.8c1.3,0,2.3-0.3,3.2-1
				c0.9-0.7,1.6-1.5,2.1-2.6c0.5-1.1,0.7-2.2,0.7-3.4c0-1.3-0.3-2.4-0.9-3.5c-0.6-1.1-1.3-1.9-2.3-2.5c-0.9-0.6-2-1-3.1-1h-9.6V21.6
				z"/>
		</g>
	</g>
</g>
</svg>
